<mxfile host="app.diagrams.net" agent="Mozilla/5.0 (Windows NT 10.0; Win64; x64) AppleWebKit/537.36 (KHTML, like Gecko) Chrome/129.0.0.0 Safari/537.36" version="24.8.2">
  <diagram name="Page-1" id="iI6wt75iKbemTo7OtA7Z">
    <mxGraphModel dx="3180" dy="1973" grid="1" gridSize="10" guides="1" tooltips="1" connect="1" arrows="1" fold="1" page="1" pageScale="1" pageWidth="850" pageHeight="1100" math="0" shadow="0">
      <root>
        <mxCell id="0" />
        <mxCell id="1" parent="0" />
        <mxCell id="kIW7K7C1Y4I2FNfuoo-G-1" value="Merchant" style="rounded=0;whiteSpace=wrap;html=1;" parent="1" vertex="1">
          <mxGeometry x="380" y="1020" width="100" height="30" as="geometry" />
        </mxCell>
        <mxCell id="kIW7K7C1Y4I2FNfuoo-G-4" value="Admin" style="rounded=0;whiteSpace=wrap;html=1;" parent="1" vertex="1">
          <mxGeometry x="260" y="1020" width="100" height="30" as="geometry" />
        </mxCell>
        <mxCell id="kIW7K7C1Y4I2FNfuoo-G-5" value="Customer" style="rounded=0;whiteSpace=wrap;html=1;" parent="1" vertex="1">
          <mxGeometry x="140" y="1020" width="100" height="30" as="geometry" />
        </mxCell>
        <mxCell id="kIW7K7C1Y4I2FNfuoo-G-11" style="edgeStyle=orthogonalEdgeStyle;rounded=0;orthogonalLoop=1;jettySize=auto;html=1;exitX=0.5;exitY=1;exitDx=0;exitDy=0;entryX=0.5;entryY=0;entryDx=0;entryDy=0;dashed=1;dashPattern=12 12;" parent="1" source="kIW7K7C1Y4I2FNfuoo-G-8" target="kIW7K7C1Y4I2FNfuoo-G-5" edge="1">
          <mxGeometry relative="1" as="geometry" />
        </mxCell>
        <mxCell id="kIW7K7C1Y4I2FNfuoo-G-8" value="&lt;div&gt;&amp;lt;&amp;lt;&lt;span style=&quot;background-color: initial;&quot;&gt;Boundary&amp;gt;&amp;gt;&lt;/span&gt;&lt;/div&gt;Customer UI" style="swimlane;whiteSpace=wrap;html=1;" parent="1" vertex="1">
          <mxGeometry x="140" y="860" width="90" height="100" as="geometry" />
        </mxCell>
        <mxCell id="kIW7K7C1Y4I2FNfuoo-G-13" style="edgeStyle=orthogonalEdgeStyle;rounded=0;orthogonalLoop=1;jettySize=auto;html=1;exitX=0.5;exitY=1;exitDx=0;exitDy=0;dashed=1;dashPattern=12 12;" parent="1" source="kIW7K7C1Y4I2FNfuoo-G-9" target="kIW7K7C1Y4I2FNfuoo-G-1" edge="1">
          <mxGeometry relative="1" as="geometry" />
        </mxCell>
        <mxCell id="kIW7K7C1Y4I2FNfuoo-G-9" value="&lt;div&gt;&amp;lt;&amp;lt;&lt;span style=&quot;background-color: initial;&quot;&gt;Boundary&amp;gt;&amp;gt;&lt;/span&gt;&lt;/div&gt;Merchant UI" style="swimlane;whiteSpace=wrap;html=1;startSize=23;" parent="1" vertex="1">
          <mxGeometry x="380" y="860" width="90" height="100" as="geometry" />
        </mxCell>
        <mxCell id="kIW7K7C1Y4I2FNfuoo-G-12" style="edgeStyle=orthogonalEdgeStyle;rounded=0;orthogonalLoop=1;jettySize=auto;html=1;exitX=0.5;exitY=1;exitDx=0;exitDy=0;entryX=0.5;entryY=0;entryDx=0;entryDy=0;dashed=1;dashPattern=12 12;" parent="1" source="kIW7K7C1Y4I2FNfuoo-G-10" target="kIW7K7C1Y4I2FNfuoo-G-4" edge="1">
          <mxGeometry relative="1" as="geometry" />
        </mxCell>
        <mxCell id="kIW7K7C1Y4I2FNfuoo-G-10" value="&lt;div&gt;&amp;lt;&amp;lt;&lt;span style=&quot;background-color: initial;&quot;&gt;Boundary&amp;gt;&amp;gt;&lt;/span&gt;&lt;/div&gt;Admin UI" style="swimlane;whiteSpace=wrap;html=1;startSize=23;" parent="1" vertex="1">
          <mxGeometry x="260" y="860" width="90" height="100" as="geometry" />
        </mxCell>
        <mxCell id="kIW7K7C1Y4I2FNfuoo-G-14" value="&lt;div&gt;&amp;lt;&amp;lt;Boundary&amp;gt;&amp;gt;&lt;/div&gt;Product UI" style="swimlane;whiteSpace=wrap;html=1;" parent="1" vertex="1">
          <mxGeometry x="140" y="720" width="90" height="100" as="geometry" />
        </mxCell>
        <mxCell id="kIW7K7C1Y4I2FNfuoo-G-16" value="&lt;div&gt;&amp;lt;&amp;lt;Entity&lt;span style=&quot;background-color: initial;&quot;&gt;&amp;gt;&amp;gt;&lt;/span&gt;&lt;/div&gt;Order DTO" style="swimlane;whiteSpace=wrap;html=1;startSize=23;" parent="1" vertex="1">
          <mxGeometry x="1415" y="995" width="90" height="100" as="geometry" />
        </mxCell>
        <mxCell id="kIW7K7C1Y4I2FNfuoo-G-17" value="&lt;div&gt;&amp;lt;&amp;lt;Entity&lt;span style=&quot;background-color: initial;&quot;&gt;&amp;gt;&amp;gt;&lt;/span&gt;&lt;/div&gt;Customer DTO" style="swimlane;whiteSpace=wrap;html=1;startSize=23;" parent="1" vertex="1">
          <mxGeometry x="1500" y="860" width="90" height="100" as="geometry" />
        </mxCell>
        <mxCell id="kIW7K7C1Y4I2FNfuoo-G-18" value="&lt;div&gt;&amp;lt;&amp;lt;Entity&lt;span style=&quot;background-color: initial;&quot;&gt;&amp;gt;&amp;gt;&lt;/span&gt;&lt;/div&gt;Merchant DTO" style="swimlane;whiteSpace=wrap;html=1;startSize=23;" parent="1" vertex="1">
          <mxGeometry x="1325" y="870" width="90" height="100" as="geometry" />
        </mxCell>
        <mxCell id="kIW7K7C1Y4I2FNfuoo-G-19" value="&lt;div&gt;&amp;lt;&amp;lt;Entity&lt;span style=&quot;background-color: initial;&quot;&gt;&amp;gt;&amp;gt;&lt;/span&gt;&lt;/div&gt;Product Filter DTO" style="swimlane;whiteSpace=wrap;html=1;startSize=50;" parent="1" vertex="1">
          <mxGeometry x="1235" y="1000" width="90" height="110" as="geometry" />
        </mxCell>
        <mxCell id="kIW7K7C1Y4I2FNfuoo-G-20" value="&lt;div&gt;&amp;lt;&amp;lt;Entity&lt;span style=&quot;background-color: initial;&quot;&gt;&amp;gt;&amp;gt;&lt;/span&gt;&lt;/div&gt;Category DTO" style="swimlane;whiteSpace=wrap;html=1;startSize=23;" parent="1" vertex="1">
          <mxGeometry x="1040" y="1000" width="90" height="100" as="geometry" />
        </mxCell>
        <mxCell id="kIW7K7C1Y4I2FNfuoo-G-21" value="&lt;div&gt;&amp;lt;&amp;lt;Entity&lt;span style=&quot;background-color: initial;&quot;&gt;&amp;gt;&amp;gt;&lt;/span&gt;&lt;/div&gt;Product DTO" style="swimlane;whiteSpace=wrap;html=1;startSize=23;" parent="1" vertex="1">
          <mxGeometry x="1150" y="860" width="90" height="100" as="geometry" />
        </mxCell>
        <mxCell id="kIW7K7C1Y4I2FNfuoo-G-22" value="&lt;div&gt;&amp;lt;&amp;lt;Entity&lt;span style=&quot;background-color: initial;&quot;&gt;&amp;gt;&amp;gt;&lt;/span&gt;&lt;/div&gt;Cart DTO" style="swimlane;whiteSpace=wrap;html=1;startSize=23;" parent="1" vertex="1">
          <mxGeometry x="970" y="860" width="90" height="100" as="geometry" />
        </mxCell>
        <mxCell id="kIW7K7C1Y4I2FNfuoo-G-26" style="edgeStyle=orthogonalEdgeStyle;rounded=0;orthogonalLoop=1;jettySize=auto;html=1;exitX=0.25;exitY=1;exitDx=0;exitDy=0;entryX=0.5;entryY=0;entryDx=0;entryDy=0;dashed=1;dashPattern=12 12;" parent="1" source="kIW7K7C1Y4I2FNfuoo-G-25" target="kIW7K7C1Y4I2FNfuoo-G-22" edge="1">
          <mxGeometry relative="1" as="geometry" />
        </mxCell>
        <mxCell id="kIW7K7C1Y4I2FNfuoo-G-27" style="edgeStyle=orthogonalEdgeStyle;rounded=0;orthogonalLoop=1;jettySize=auto;html=1;exitX=0.75;exitY=1;exitDx=0;exitDy=0;dashed=1;dashPattern=12 12;" parent="1" source="kIW7K7C1Y4I2FNfuoo-G-25" target="kIW7K7C1Y4I2FNfuoo-G-17" edge="1">
          <mxGeometry relative="1" as="geometry" />
        </mxCell>
        <mxCell id="kIW7K7C1Y4I2FNfuoo-G-28" style="edgeStyle=orthogonalEdgeStyle;rounded=0;orthogonalLoop=1;jettySize=auto;html=1;exitX=0.25;exitY=1;exitDx=0;exitDy=0;entryX=0.5;entryY=0;entryDx=0;entryDy=0;dashed=1;dashPattern=12 12;" parent="1" source="kIW7K7C1Y4I2FNfuoo-G-25" target="kIW7K7C1Y4I2FNfuoo-G-21" edge="1">
          <mxGeometry relative="1" as="geometry" />
        </mxCell>
        <mxCell id="kIW7K7C1Y4I2FNfuoo-G-29" style="edgeStyle=orthogonalEdgeStyle;rounded=0;orthogonalLoop=1;jettySize=auto;html=1;exitX=0.75;exitY=1;exitDx=0;exitDy=0;entryX=0.5;entryY=0;entryDx=0;entryDy=0;dashed=1;dashPattern=12 12;" parent="1" source="kIW7K7C1Y4I2FNfuoo-G-25" target="kIW7K7C1Y4I2FNfuoo-G-18" edge="1">
          <mxGeometry relative="1" as="geometry" />
        </mxCell>
        <mxCell id="kIW7K7C1Y4I2FNfuoo-G-30" style="edgeStyle=orthogonalEdgeStyle;rounded=0;orthogonalLoop=1;jettySize=auto;html=1;exitX=0.5;exitY=1;exitDx=0;exitDy=0;entryX=0.5;entryY=0;entryDx=0;entryDy=0;dashed=1;dashPattern=12 12;" parent="1" source="kIW7K7C1Y4I2FNfuoo-G-25" target="kIW7K7C1Y4I2FNfuoo-G-19" edge="1">
          <mxGeometry relative="1" as="geometry" />
        </mxCell>
        <mxCell id="kIW7K7C1Y4I2FNfuoo-G-31" style="edgeStyle=orthogonalEdgeStyle;rounded=0;orthogonalLoop=1;jettySize=auto;html=1;exitX=0.5;exitY=1;exitDx=0;exitDy=0;entryX=0.5;entryY=0;entryDx=0;entryDy=0;dashed=1;dashPattern=12 12;" parent="1" source="kIW7K7C1Y4I2FNfuoo-G-25" target="kIW7K7C1Y4I2FNfuoo-G-20" edge="1">
          <mxGeometry relative="1" as="geometry">
            <Array as="points">
              <mxPoint x="1313" y="830" />
              <mxPoint x="1085" y="830" />
            </Array>
          </mxGeometry>
        </mxCell>
        <mxCell id="kIW7K7C1Y4I2FNfuoo-G-32" style="edgeStyle=orthogonalEdgeStyle;rounded=0;orthogonalLoop=1;jettySize=auto;html=1;exitX=0.5;exitY=1;exitDx=0;exitDy=0;entryX=0.5;entryY=0;entryDx=0;entryDy=0;dashed=1;dashPattern=12 12;" parent="1" source="kIW7K7C1Y4I2FNfuoo-G-105" target="kIW7K7C1Y4I2FNfuoo-G-16" edge="1">
          <mxGeometry relative="1" as="geometry">
            <Array as="points">
              <mxPoint x="1313" y="830" />
              <mxPoint x="1460" y="830" />
            </Array>
          </mxGeometry>
        </mxCell>
        <mxCell id="kIW7K7C1Y4I2FNfuoo-G-67" style="edgeStyle=orthogonalEdgeStyle;rounded=0;orthogonalLoop=1;jettySize=auto;html=1;exitX=0.5;exitY=0;exitDx=0;exitDy=0;entryX=0.75;entryY=1;entryDx=0;entryDy=0;dashed=1;dashPattern=12 12;" parent="1" source="kIW7K7C1Y4I2FNfuoo-G-25" target="kIW7K7C1Y4I2FNfuoo-G-59" edge="1">
          <mxGeometry relative="1" as="geometry">
            <Array as="points">
              <mxPoint x="1148" y="465" />
              <mxPoint x="1000" y="465" />
              <mxPoint x="1000" y="420" />
            </Array>
          </mxGeometry>
        </mxCell>
        <mxCell id="kIW7K7C1Y4I2FNfuoo-G-111" style="edgeStyle=orthogonalEdgeStyle;rounded=0;orthogonalLoop=1;jettySize=auto;html=1;exitX=0;exitY=0;exitDx=0;exitDy=0;entryX=0.75;entryY=1;entryDx=0;entryDy=0;dashed=1;dashPattern=8 8;" parent="1" source="kIW7K7C1Y4I2FNfuoo-G-25" target="kIW7K7C1Y4I2FNfuoo-G-61" edge="1">
          <mxGeometry relative="1" as="geometry" />
        </mxCell>
        <mxCell id="kIW7K7C1Y4I2FNfuoo-G-25" value="&lt;font style=&quot;font-size: 15px;&quot;&gt;&amp;lt;&amp;lt;Sub System&amp;gt;&amp;gt;&lt;br&gt;&lt;br&gt;&lt;/font&gt;&lt;div style=&quot;font-size: 15px;&quot;&gt;&lt;font style=&quot;font-size: 15px;&quot;&gt;Data Access Layer&lt;/font&gt;&lt;/div&gt;" style="rounded=0;whiteSpace=wrap;html=1;" parent="1" vertex="1">
          <mxGeometry x="970" y="510" width="355" height="60" as="geometry" />
        </mxCell>
        <mxCell id="kIW7K7C1Y4I2FNfuoo-G-55" style="edgeStyle=orthogonalEdgeStyle;rounded=0;orthogonalLoop=1;jettySize=auto;html=1;exitX=0.5;exitY=1;exitDx=0;exitDy=0;entryX=0.5;entryY=0;entryDx=0;entryDy=0;dashed=1;dashPattern=12 12;" parent="1" source="kIW7K7C1Y4I2FNfuoo-G-33" target="kIW7K7C1Y4I2FNfuoo-G-10" edge="1">
          <mxGeometry relative="1" as="geometry" />
        </mxCell>
        <mxCell id="kIW7K7C1Y4I2FNfuoo-G-56" style="edgeStyle=orthogonalEdgeStyle;rounded=0;orthogonalLoop=1;jettySize=auto;html=1;exitX=0.25;exitY=1;exitDx=0;exitDy=0;dashed=1;dashPattern=12 12;" parent="1" source="kIW7K7C1Y4I2FNfuoo-G-33" target="kIW7K7C1Y4I2FNfuoo-G-14" edge="1">
          <mxGeometry relative="1" as="geometry" />
        </mxCell>
        <mxCell id="kIW7K7C1Y4I2FNfuoo-G-57" style="edgeStyle=orthogonalEdgeStyle;rounded=0;orthogonalLoop=1;jettySize=auto;html=1;exitX=0.75;exitY=1;exitDx=0;exitDy=0;entryX=0.5;entryY=0;entryDx=0;entryDy=0;dashed=1;dashPattern=12 12;" parent="1" source="kIW7K7C1Y4I2FNfuoo-G-33" target="kIW7K7C1Y4I2FNfuoo-G-9" edge="1">
          <mxGeometry relative="1" as="geometry">
            <Array as="points">
              <mxPoint x="394" y="830" />
              <mxPoint x="425" y="830" />
            </Array>
          </mxGeometry>
        </mxCell>
        <mxCell id="kIW7K7C1Y4I2FNfuoo-G-58" style="edgeStyle=orthogonalEdgeStyle;rounded=0;orthogonalLoop=1;jettySize=auto;html=1;exitX=0.5;exitY=1;exitDx=0;exitDy=0;entryX=0.5;entryY=0;entryDx=0;entryDy=0;dashed=1;dashPattern=12 12;" parent="1" source="kIW7K7C1Y4I2FNfuoo-G-33" target="kIW7K7C1Y4I2FNfuoo-G-8" edge="1">
          <mxGeometry relative="1" as="geometry">
            <Array as="points">
              <mxPoint x="305" y="715" />
              <mxPoint x="270" y="715" />
              <mxPoint x="270" y="830" />
              <mxPoint x="185" y="830" />
            </Array>
          </mxGeometry>
        </mxCell>
        <mxCell id="kIW7K7C1Y4I2FNfuoo-G-65" style="edgeStyle=orthogonalEdgeStyle;rounded=0;orthogonalLoop=1;jettySize=auto;html=1;exitX=0.5;exitY=0;exitDx=0;exitDy=0;entryX=0.25;entryY=1;entryDx=0;entryDy=0;dashed=1;dashPattern=12 12;" parent="1" source="kIW7K7C1Y4I2FNfuoo-G-33" target="kIW7K7C1Y4I2FNfuoo-G-59" edge="1">
          <mxGeometry relative="1" as="geometry" />
        </mxCell>
        <mxCell id="kIW7K7C1Y4I2FNfuoo-G-33" value="&lt;font style=&quot;font-size: 15px;&quot;&gt;&amp;lt;&amp;lt;Sub System&amp;gt;&amp;gt;&lt;br&gt;&lt;br&gt;&lt;/font&gt;&lt;div style=&quot;font-size: 15px;&quot;&gt;&lt;font style=&quot;font-size: 15px;&quot;&gt;Presentation Layer&lt;/font&gt;&lt;/div&gt;" style="rounded=0;whiteSpace=wrap;html=1;" parent="1" vertex="1">
          <mxGeometry x="127.5" y="510" width="355" height="60" as="geometry" />
        </mxCell>
        <mxCell id="kIW7K7C1Y4I2FNfuoo-G-41" style="edgeStyle=orthogonalEdgeStyle;rounded=0;orthogonalLoop=1;jettySize=auto;html=1;exitX=0;exitY=1;exitDx=0;exitDy=0;entryX=0.5;entryY=0;entryDx=0;entryDy=0;dashed=1;dashPattern=12 12;" parent="1" source="kIW7K7C1Y4I2FNfuoo-G-34" target="kIW7K7C1Y4I2FNfuoo-G-38" edge="1">
          <mxGeometry relative="1" as="geometry" />
        </mxCell>
        <mxCell id="kIW7K7C1Y4I2FNfuoo-G-42" style="edgeStyle=orthogonalEdgeStyle;rounded=0;orthogonalLoop=1;jettySize=auto;html=1;exitX=0;exitY=0.5;exitDx=0;exitDy=0;entryX=0.5;entryY=0;entryDx=0;entryDy=0;dashed=1;dashPattern=12 12;" parent="1" source="kIW7K7C1Y4I2FNfuoo-G-34" target="kIW7K7C1Y4I2FNfuoo-G-35" edge="1">
          <mxGeometry relative="1" as="geometry" />
        </mxCell>
        <mxCell id="kIW7K7C1Y4I2FNfuoo-G-43" style="edgeStyle=orthogonalEdgeStyle;rounded=0;orthogonalLoop=1;jettySize=auto;html=1;exitX=0.5;exitY=1;exitDx=0;exitDy=0;entryX=0.5;entryY=0;entryDx=0;entryDy=0;dashed=1;dashPattern=12 12;" parent="1" source="kIW7K7C1Y4I2FNfuoo-G-34" target="kIW7K7C1Y4I2FNfuoo-G-36" edge="1">
          <mxGeometry relative="1" as="geometry" />
        </mxCell>
        <mxCell id="kIW7K7C1Y4I2FNfuoo-G-44" style="edgeStyle=orthogonalEdgeStyle;rounded=0;orthogonalLoop=1;jettySize=auto;html=1;exitX=0.75;exitY=1;exitDx=0;exitDy=0;entryX=0.5;entryY=0;entryDx=0;entryDy=0;dashed=1;dashPattern=12 12;" parent="1" source="kIW7K7C1Y4I2FNfuoo-G-34" target="kIW7K7C1Y4I2FNfuoo-G-37" edge="1">
          <mxGeometry relative="1" as="geometry" />
        </mxCell>
        <mxCell id="kIW7K7C1Y4I2FNfuoo-G-51" style="edgeStyle=orthogonalEdgeStyle;rounded=0;orthogonalLoop=1;jettySize=auto;html=1;exitX=0.75;exitY=1;exitDx=0;exitDy=0;entryX=1;entryY=0;entryDx=0;entryDy=0;dashed=1;dashPattern=8 8;" parent="1" source="kIW7K7C1Y4I2FNfuoo-G-34" target="kIW7K7C1Y4I2FNfuoo-G-45" edge="1">
          <mxGeometry relative="1" as="geometry">
            <mxPoint x="870" y="580" as="sourcePoint" />
            <mxPoint x="771.25" y="840" as="targetPoint" />
            <Array as="points">
              <mxPoint x="836" y="580" />
              <mxPoint x="824" y="580" />
              <mxPoint x="824" y="670" />
              <mxPoint x="771" y="670" />
              <mxPoint x="771" y="830" />
            </Array>
          </mxGeometry>
        </mxCell>
        <mxCell id="kIW7K7C1Y4I2FNfuoo-G-53" style="edgeStyle=orthogonalEdgeStyle;rounded=0;orthogonalLoop=1;jettySize=auto;html=1;exitX=1;exitY=1;exitDx=0;exitDy=0;entryX=0.5;entryY=0;entryDx=0;entryDy=0;dashed=1;dashPattern=12 12;" parent="1" source="kIW7K7C1Y4I2FNfuoo-G-34" target="kIW7K7C1Y4I2FNfuoo-G-48" edge="1">
          <mxGeometry relative="1" as="geometry">
            <Array as="points">
              <mxPoint x="925" y="970" />
            </Array>
          </mxGeometry>
        </mxCell>
        <mxCell id="kIW7K7C1Y4I2FNfuoo-G-54" style="edgeStyle=orthogonalEdgeStyle;rounded=0;orthogonalLoop=1;jettySize=auto;html=1;exitX=0;exitY=1;exitDx=0;exitDy=0;entryX=0;entryY=0;entryDx=0;entryDy=0;dashed=1;dashPattern=12 12;" parent="1" source="kIW7K7C1Y4I2FNfuoo-G-91" target="kIW7K7C1Y4I2FNfuoo-G-47" edge="1">
          <mxGeometry relative="1" as="geometry">
            <Array as="points">
              <mxPoint x="510" y="570" />
              <mxPoint x="510" y="970" />
            </Array>
          </mxGeometry>
        </mxCell>
        <mxCell id="kIW7K7C1Y4I2FNfuoo-G-66" style="edgeStyle=orthogonalEdgeStyle;rounded=0;orthogonalLoop=1;jettySize=auto;html=1;exitX=0.5;exitY=0;exitDx=0;exitDy=0;entryX=0.5;entryY=1;entryDx=0;entryDy=0;dashed=1;dashPattern=12 12;" parent="1" source="kIW7K7C1Y4I2FNfuoo-G-34" target="kIW7K7C1Y4I2FNfuoo-G-59" edge="1">
          <mxGeometry relative="1" as="geometry" />
        </mxCell>
        <mxCell id="kIW7K7C1Y4I2FNfuoo-G-96" style="edgeStyle=orthogonalEdgeStyle;rounded=0;orthogonalLoop=1;jettySize=auto;html=1;exitX=0.25;exitY=1;exitDx=0;exitDy=0;entryX=0.5;entryY=0;entryDx=0;entryDy=0;dashed=1;dashPattern=12 12;" parent="1" source="kIW7K7C1Y4I2FNfuoo-G-34" target="kIW7K7C1Y4I2FNfuoo-G-40" edge="1">
          <mxGeometry relative="1" as="geometry">
            <Array as="points">
              <mxPoint x="640" y="570" />
              <mxPoint x="640" y="830" />
            </Array>
          </mxGeometry>
        </mxCell>
        <mxCell id="kIW7K7C1Y4I2FNfuoo-G-34" value="&lt;font style=&quot;font-size: 15px;&quot;&gt;&amp;lt;&amp;lt;Sub System&amp;gt;&amp;gt;&lt;br&gt;&lt;br&gt;&lt;/font&gt;&lt;div style=&quot;font-size: 15px;&quot;&gt;&lt;font style=&quot;font-size: 15px;&quot;&gt;Control Layer&lt;/font&gt;&lt;/div&gt;" style="rounded=0;whiteSpace=wrap;html=1;" parent="1" vertex="1">
          <mxGeometry x="570" y="510" width="355" height="60" as="geometry" />
        </mxCell>
        <mxCell id="kIW7K7C1Y4I2FNfuoo-G-35" value="&lt;div&gt;&amp;lt;&amp;lt;Controller&lt;span style=&quot;background-color: initial;&quot;&gt;&amp;gt;&amp;gt;&lt;/span&gt;&lt;/div&gt;Merchant Product" style="swimlane;whiteSpace=wrap;html=1;startSize=50;" parent="1" vertex="1">
          <mxGeometry x="520" y="680" width="90" height="100" as="geometry" />
        </mxCell>
        <mxCell id="kIW7K7C1Y4I2FNfuoo-G-36" value="&lt;div&gt;&amp;lt;&amp;lt;Controller&lt;span style=&quot;background-color: initial;&quot;&gt;&amp;gt;&amp;gt;&lt;/span&gt;&lt;/div&gt;&lt;div&gt;&lt;span style=&quot;background-color: initial;&quot;&gt;Category&lt;/span&gt;&lt;/div&gt;" style="swimlane;whiteSpace=wrap;html=1;startSize=30;" parent="1" vertex="1">
          <mxGeometry x="660" y="680" width="90" height="100" as="geometry" />
        </mxCell>
        <mxCell id="kIW7K7C1Y4I2FNfuoo-G-37" value="&lt;div&gt;&amp;lt;&amp;lt;Controller&lt;span style=&quot;background-color: initial;&quot;&gt;&amp;gt;&amp;gt;&lt;/span&gt;&lt;/div&gt;&lt;div&gt;&lt;span style=&quot;background-color: initial;&quot;&gt;OTP Verification&lt;/span&gt;&lt;/div&gt;" style="swimlane;whiteSpace=wrap;html=1;startSize=50;" parent="1" vertex="1">
          <mxGeometry x="790" y="680" width="90" height="100" as="geometry" />
        </mxCell>
        <mxCell id="kIW7K7C1Y4I2FNfuoo-G-38" value="&lt;div&gt;&amp;lt;&amp;lt;&lt;span style=&quot;background-color: initial;&quot;&gt;Controller&amp;gt;&amp;gt;&lt;/span&gt;&lt;/div&gt;Admin Product" style="swimlane;whiteSpace=wrap;html=1;startSize=30;" parent="1" vertex="1">
          <mxGeometry x="410" y="640" width="90" height="100" as="geometry" />
        </mxCell>
        <mxCell id="kIW7K7C1Y4I2FNfuoo-G-40" value="&lt;div&gt;&amp;lt;&amp;lt;&lt;span style=&quot;background-color: initial;&quot;&gt;Controller&amp;gt;&amp;gt;&lt;/span&gt;&lt;/div&gt;Product" style="swimlane;whiteSpace=wrap;html=1;startSize=30;" parent="1" vertex="1">
          <mxGeometry x="560" y="830" width="90" height="100" as="geometry" />
        </mxCell>
        <mxCell id="kIW7K7C1Y4I2FNfuoo-G-45" value="&lt;div&gt;&amp;lt;&amp;lt;Controller&lt;span style=&quot;background-color: initial;&quot;&gt;&amp;gt;&amp;gt;&lt;/span&gt;&lt;/div&gt;&lt;div&gt;&lt;span style=&quot;background-color: initial;&quot;&gt;Order&lt;/span&gt;&lt;/div&gt;" style="swimlane;whiteSpace=wrap;html=1;startSize=30;" parent="1" vertex="1">
          <mxGeometry x="670" y="830" width="90" height="100" as="geometry" />
        </mxCell>
        <mxCell id="kIW7K7C1Y4I2FNfuoo-G-46" value="&lt;div&gt;&amp;lt;&amp;lt;Controller&lt;span style=&quot;background-color: initial;&quot;&gt;&amp;gt;&amp;gt;&lt;/span&gt;&lt;/div&gt;&lt;div&gt;&lt;span style=&quot;background-color: initial;&quot;&gt;Cart&lt;/span&gt;&lt;/div&gt;" style="swimlane;whiteSpace=wrap;html=1;startSize=50;" parent="1" vertex="1">
          <mxGeometry x="780" y="830" width="90" height="100" as="geometry" />
        </mxCell>
        <mxCell id="kIW7K7C1Y4I2FNfuoo-G-47" value="&lt;div&gt;&amp;lt;&amp;lt;Controller&lt;span style=&quot;background-color: initial;&quot;&gt;&amp;gt;&amp;gt;&lt;/span&gt;&lt;/div&gt;&lt;div&gt;&lt;span style=&quot;background-color: initial;&quot;&gt;Customer&lt;/span&gt;&lt;span style=&quot;color: rgba(0, 0, 0, 0); font-family: monospace; font-size: 0px; font-weight: 400; text-align: start; text-wrap: nowrap; background-color: initial;&quot;&gt;%3CmxGraphModel%3E%3Croot%3E%3CmxCell%20id%3D%220%22%2F%3E%3CmxCell%20id%3D%221%22%20parent%3D%220%22%2F%3E%3CmxCell%20id%3D%222%22%20value%3D%22%26lt%3Bdiv%26gt%3B%26amp%3Blt%3B%26amp%3Blt%3BController%26lt%3Bspan%20style%3D%26quot%3Bbackground-color%3A%20initial%3B%26quot%3B%26gt%3B%26amp%3Bgt%3B%26amp%3Bgt%3B%26lt%3B%2Fspan%26gt%3B%26lt%3B%2Fdiv%26gt%3B%26lt%3Bdiv%26gt%3B%26lt%3Bspan%20style%3D%26quot%3Bbackground-color%3A%20initial%3B%26quot%3B%26gt%3BOTP%20Verification%26lt%3B%2Fspan%26gt%3B%26lt%3B%2Fdiv%26gt%3B%22%20style%3D%22swimlane%3BwhiteSpace%3Dwrap%3Bhtml%3D1%3BstartSize%3D50%3B%22%20vertex%3D%221%22%20parent%3D%221%22%3E%3CmxGeometry%20x%3D%22790%22%20y%3D%22680%22%20width%3D%2290%22%20height%3D%22100%22%20as%3D%22geometry%22%2F%3E%3C%2FmxCell%3E%3C%2Froot%3E%3C%2FmxGraphModel%3E&lt;/span&gt;&lt;/div&gt;" style="swimlane;whiteSpace=wrap;html=1;startSize=50;" parent="1" vertex="1">
          <mxGeometry x="610" y="970" width="90" height="100" as="geometry" />
        </mxCell>
        <mxCell id="kIW7K7C1Y4I2FNfuoo-G-48" value="&lt;div&gt;&amp;lt;&amp;lt;Controller&lt;span style=&quot;background-color: initial;&quot;&gt;&amp;gt;&amp;gt;&lt;/span&gt;&lt;/div&gt;&lt;div&gt;Merchant&lt;/div&gt;" style="swimlane;whiteSpace=wrap;html=1;startSize=50;" parent="1" vertex="1">
          <mxGeometry x="730" y="970" width="90" height="100" as="geometry" />
        </mxCell>
        <mxCell id="kIW7K7C1Y4I2FNfuoo-G-52" style="edgeStyle=orthogonalEdgeStyle;rounded=0;orthogonalLoop=1;jettySize=auto;html=1;exitX=1;exitY=1;exitDx=0;exitDy=0;entryX=1.037;entryY=0.07;entryDx=0;entryDy=0;entryPerimeter=0;dashed=1;dashPattern=12 12;" parent="1" source="kIW7K7C1Y4I2FNfuoo-G-34" target="kIW7K7C1Y4I2FNfuoo-G-46" edge="1">
          <mxGeometry relative="1" as="geometry">
            <Array as="points">
              <mxPoint x="925" y="837" />
            </Array>
          </mxGeometry>
        </mxCell>
        <mxCell id="kIW7K7C1Y4I2FNfuoo-G-59" value="" style="rounded=0;whiteSpace=wrap;html=1;" parent="1" vertex="1">
          <mxGeometry x="250" y="190" width="920" height="230" as="geometry" />
        </mxCell>
        <mxCell id="kIW7K7C1Y4I2FNfuoo-G-60" value="&lt;font style=&quot;font-size: 25px;&quot;&gt;Web Server&lt;/font&gt;" style="shape=process;whiteSpace=wrap;html=1;backgroundOutline=1;" parent="1" vertex="1">
          <mxGeometry x="380" y="330" width="180" height="90" as="geometry" />
        </mxCell>
        <mxCell id="kIW7K7C1Y4I2FNfuoo-G-61" value="&lt;font style=&quot;font-size: 25px;&quot;&gt;App Server&lt;/font&gt;&lt;div style=&quot;font-size: 25px;&quot;&gt;&lt;br&gt;&lt;/div&gt;" style="shape=process;whiteSpace=wrap;html=1;backgroundOutline=1;" parent="1" vertex="1">
          <mxGeometry x="625" y="330" width="180" height="90" as="geometry" />
        </mxCell>
        <mxCell id="kIW7K7C1Y4I2FNfuoo-G-62" value="&lt;font style=&quot;font-size: 25px;&quot;&gt;Database Server&lt;/font&gt;" style="shape=process;whiteSpace=wrap;html=1;backgroundOutline=1;" parent="1" vertex="1">
          <mxGeometry x="870" y="330" width="180" height="90" as="geometry" />
        </mxCell>
        <mxCell id="kIW7K7C1Y4I2FNfuoo-G-63" value="&lt;font style=&quot;font-size: 27px;&quot;&gt;Cloud based Internal network&lt;/font&gt;" style="text;html=1;align=center;verticalAlign=middle;whiteSpace=wrap;rounded=0;" parent="1" vertex="1">
          <mxGeometry x="490" y="230" width="410" height="30" as="geometry" />
        </mxCell>
        <mxCell id="kIW7K7C1Y4I2FNfuoo-G-64" value="&lt;font style=&quot;font-size: 19px;&quot;&gt;&amp;lt;&amp;lt;Location&amp;gt;&amp;gt;&lt;/font&gt;" style="text;html=1;align=center;verticalAlign=middle;whiteSpace=wrap;rounded=0;" parent="1" vertex="1">
          <mxGeometry x="625" y="190" width="170" height="30" as="geometry" />
        </mxCell>
        <mxCell id="kIW7K7C1Y4I2FNfuoo-G-69" value="&lt;font style=&quot;font-size: 21px;&quot;&gt;&amp;lt;&amp;lt;Location&amp;gt;&amp;gt;&lt;/font&gt;&lt;div style=&quot;font-size: 21px;&quot;&gt;&lt;font style=&quot;font-size: 21px;&quot;&gt;&lt;br&gt;&lt;br&gt;Client PC&lt;/font&gt;&lt;/div&gt;" style="rounded=0;whiteSpace=wrap;html=1;" parent="1" vertex="1">
          <mxGeometry x="20" y="230" width="182.5" height="150" as="geometry" />
        </mxCell>
        <mxCell id="kIW7K7C1Y4I2FNfuoo-G-72" value="&lt;font style=&quot;font-size: 13px;&quot;&gt;+manifest&lt;/font&gt;" style="text;html=1;align=center;verticalAlign=middle;whiteSpace=wrap;rounded=0;rotation=-90;" parent="1" vertex="1">
          <mxGeometry x="140" y="660" width="60" height="30" as="geometry" />
        </mxCell>
        <mxCell id="kIW7K7C1Y4I2FNfuoo-G-79" value="&lt;font style=&quot;font-size: 13px;&quot;&gt;+manifest&lt;/font&gt;" style="text;html=1;align=center;verticalAlign=middle;whiteSpace=wrap;rounded=0;rotation=-90;" parent="1" vertex="1">
          <mxGeometry x="290" y="650" width="60" height="30" as="geometry" />
        </mxCell>
        <mxCell id="kIW7K7C1Y4I2FNfuoo-G-82" value="&lt;font style=&quot;font-size: 13px;&quot;&gt;+manifest&lt;/font&gt;" style="text;html=1;align=center;verticalAlign=middle;whiteSpace=wrap;rounded=0;rotation=-90;" parent="1" vertex="1">
          <mxGeometry x="550" y="610" width="60" height="30" as="geometry" />
        </mxCell>
        <mxCell id="kIW7K7C1Y4I2FNfuoo-G-83" value="&lt;font style=&quot;font-size: 13px;&quot;&gt;+manifest&lt;/font&gt;" style="text;html=1;align=center;verticalAlign=middle;whiteSpace=wrap;rounded=0;rotation=-90;" parent="1" vertex="1">
          <mxGeometry x="730" y="770" width="60" height="30" as="geometry" />
        </mxCell>
        <mxCell id="kIW7K7C1Y4I2FNfuoo-G-84" value="&lt;font style=&quot;font-size: 13px;&quot;&gt;+manifest&lt;/font&gt;" style="text;html=1;align=center;verticalAlign=middle;whiteSpace=wrap;rounded=0;rotation=-90;" parent="1" vertex="1">
          <mxGeometry x="820" y="600" width="60" height="30" as="geometry" />
        </mxCell>
        <mxCell id="kIW7K7C1Y4I2FNfuoo-G-85" value="&lt;font style=&quot;font-size: 13px;&quot;&gt;+manifest&lt;/font&gt;" style="text;html=1;align=center;verticalAlign=middle;whiteSpace=wrap;rounded=0;rotation=-90;" parent="1" vertex="1">
          <mxGeometry x="920" y="690" width="60" height="30" as="geometry" />
        </mxCell>
        <mxCell id="kIW7K7C1Y4I2FNfuoo-G-86" value="&lt;font style=&quot;font-size: 13px;&quot;&gt;+manifest&lt;/font&gt;" style="text;html=1;align=center;verticalAlign=middle;whiteSpace=wrap;rounded=0;rotation=-90;" parent="1" vertex="1">
          <mxGeometry x="500" y="880" width="60" height="30" as="geometry" />
        </mxCell>
        <mxCell id="kIW7K7C1Y4I2FNfuoo-G-87" value="&lt;font style=&quot;font-size: 13px;&quot;&gt;+manifest&lt;/font&gt;" style="text;html=1;align=center;verticalAlign=middle;whiteSpace=wrap;rounded=0;rotation=-90;" parent="1" vertex="1">
          <mxGeometry x="230" y="755" width="60" height="30" as="geometry" />
        </mxCell>
        <mxCell id="kIW7K7C1Y4I2FNfuoo-G-88" value="&lt;font style=&quot;font-size: 13px;&quot;&gt;+manifest&lt;/font&gt;" style="text;html=1;align=center;verticalAlign=middle;whiteSpace=wrap;rounded=0;rotation=-90;" parent="1" vertex="1">
          <mxGeometry x="350" y="660" width="60" height="30" as="geometry" />
        </mxCell>
        <mxCell id="kIW7K7C1Y4I2FNfuoo-G-90" value="&lt;font style=&quot;font-size: 13px;&quot;&gt;+manifest&lt;/font&gt;" style="text;html=1;align=center;verticalAlign=middle;whiteSpace=wrap;rounded=0;rotation=-90;" parent="1" vertex="1">
          <mxGeometry x="1010" y="610" width="60" height="30" as="geometry" />
        </mxCell>
        <mxCell id="kIW7K7C1Y4I2FNfuoo-G-92" value="&lt;font style=&quot;font-size: 13px;&quot;&gt;+manifest&lt;/font&gt;" style="text;html=1;align=center;verticalAlign=middle;whiteSpace=wrap;rounded=0;rotation=-90;" parent="1" vertex="1">
          <mxGeometry x="665" y="630" width="60" height="30" as="geometry" />
        </mxCell>
        <mxCell id="kIW7K7C1Y4I2FNfuoo-G-93" value="&lt;font style=&quot;font-size: 13px;&quot;&gt;+manifest&lt;/font&gt;" style="text;html=1;align=center;verticalAlign=middle;whiteSpace=wrap;rounded=0;rotation=-90;" parent="1" vertex="1">
          <mxGeometry x="601.11" y="615" width="60" height="30" as="geometry" />
        </mxCell>
        <mxCell id="kIW7K7C1Y4I2FNfuoo-G-98" value="" style="edgeStyle=orthogonalEdgeStyle;rounded=0;orthogonalLoop=1;jettySize=auto;html=1;exitX=0;exitY=1;exitDx=0;exitDy=0;entryX=0;entryY=0;entryDx=0;entryDy=0;dashed=1;dashPattern=12 12;" parent="1" source="kIW7K7C1Y4I2FNfuoo-G-34" target="kIW7K7C1Y4I2FNfuoo-G-91" edge="1">
          <mxGeometry relative="1" as="geometry">
            <mxPoint x="570" y="570" as="sourcePoint" />
            <mxPoint x="610" y="970" as="targetPoint" />
            <Array as="points" />
          </mxGeometry>
        </mxCell>
        <mxCell id="kIW7K7C1Y4I2FNfuoo-G-91" value="&lt;font style=&quot;font-size: 13px;&quot;&gt;+manifest&lt;/font&gt;" style="text;html=1;align=center;verticalAlign=middle;whiteSpace=wrap;rounded=0;rotation=0;" parent="1" vertex="1">
          <mxGeometry x="470" y="580" width="60" height="30" as="geometry" />
        </mxCell>
        <mxCell id="kIW7K7C1Y4I2FNfuoo-G-99" value="&lt;font style=&quot;font-size: 13px;&quot;&gt;+manifest&lt;/font&gt;" style="text;html=1;align=center;verticalAlign=middle;whiteSpace=wrap;rounded=0;rotation=-90;" parent="1" vertex="1">
          <mxGeometry x="1260" y="940" width="60" height="30" as="geometry" />
        </mxCell>
        <mxCell id="kIW7K7C1Y4I2FNfuoo-G-100" value="&lt;font style=&quot;font-size: 13px;&quot;&gt;+manifest&lt;/font&gt;" style="text;html=1;align=center;verticalAlign=middle;whiteSpace=wrap;rounded=0;rotation=-90;" parent="1" vertex="1">
          <mxGeometry x="1090" y="620" width="60" height="30" as="geometry" />
        </mxCell>
        <mxCell id="kIW7K7C1Y4I2FNfuoo-G-101" value="&lt;font style=&quot;font-size: 13px;&quot;&gt;+manifest&lt;/font&gt;" style="text;html=1;align=center;verticalAlign=middle;whiteSpace=wrap;rounded=0;rotation=-90;" parent="1" vertex="1">
          <mxGeometry x="880" y="920" width="60" height="30" as="geometry" />
        </mxCell>
        <mxCell id="kIW7K7C1Y4I2FNfuoo-G-102" value="&lt;font style=&quot;font-size: 13px;&quot;&gt;+manifest&lt;/font&gt;" style="text;html=1;align=center;verticalAlign=middle;whiteSpace=wrap;rounded=0;rotation=-90;" parent="1" vertex="1">
          <mxGeometry x="1070" y="940" width="60" height="30" as="geometry" />
        </mxCell>
        <mxCell id="kIW7K7C1Y4I2FNfuoo-G-103" value="&lt;font style=&quot;font-size: 13px;&quot;&gt;+manifest&lt;/font&gt;" style="text;html=1;align=center;verticalAlign=middle;whiteSpace=wrap;rounded=0;rotation=-90;" parent="1" vertex="1">
          <mxGeometry x="1265" y="600" width="60" height="30" as="geometry" />
        </mxCell>
        <mxCell id="kIW7K7C1Y4I2FNfuoo-G-104" value="&lt;font style=&quot;font-size: 13px;&quot;&gt;+manifest&lt;/font&gt;" style="text;html=1;align=center;verticalAlign=middle;whiteSpace=wrap;rounded=0;rotation=-90;" parent="1" vertex="1">
          <mxGeometry x="1190" y="600" width="60" height="30" as="geometry" />
        </mxCell>
        <mxCell id="kIW7K7C1Y4I2FNfuoo-G-106" value="" style="edgeStyle=orthogonalEdgeStyle;rounded=0;orthogonalLoop=1;jettySize=auto;html=1;exitX=0.5;exitY=1;exitDx=0;exitDy=0;entryX=0.5;entryY=0;entryDx=0;entryDy=0;dashed=1;dashPattern=12 12;" parent="1" source="kIW7K7C1Y4I2FNfuoo-G-25" target="kIW7K7C1Y4I2FNfuoo-G-105" edge="1">
          <mxGeometry relative="1" as="geometry">
            <mxPoint x="1148" y="570" as="sourcePoint" />
            <mxPoint x="1460" y="995" as="targetPoint" />
            <Array as="points" />
          </mxGeometry>
        </mxCell>
        <mxCell id="kIW7K7C1Y4I2FNfuoo-G-105" value="&lt;font style=&quot;font-size: 13px;&quot;&gt;+manifest&lt;/font&gt;" style="text;html=1;align=center;verticalAlign=middle;whiteSpace=wrap;rounded=0;rotation=-90;" parent="1" vertex="1">
          <mxGeometry x="1440" y="920" width="60" height="30" as="geometry" />
        </mxCell>
        <mxCell id="kIW7K7C1Y4I2FNfuoo-G-107" value="Text" style="text;html=1;align=center;verticalAlign=middle;whiteSpace=wrap;rounded=0;" parent="1" vertex="1">
          <mxGeometry x="640" y="780" width="60" height="30" as="geometry" />
        </mxCell>
        <mxCell id="kIW7K7C1Y4I2FNfuoo-G-108" value="&lt;font style=&quot;font-size: 15px;&quot;&gt;+deploy&lt;/font&gt;" style="text;html=1;align=center;verticalAlign=middle;whiteSpace=wrap;rounded=0;" parent="1" vertex="1">
          <mxGeometry x="310" y="440" width="60" height="30" as="geometry" />
        </mxCell>
        <mxCell id="kIW7K7C1Y4I2FNfuoo-G-109" value="&lt;font style=&quot;font-size: 15px;&quot;&gt;+deploy&lt;/font&gt;" style="text;html=1;align=center;verticalAlign=middle;whiteSpace=wrap;rounded=0;" parent="1" vertex="1">
          <mxGeometry x="717.5" y="440" width="60" height="30" as="geometry" />
        </mxCell>
        <mxCell id="kIW7K7C1Y4I2FNfuoo-G-110" value="&lt;font style=&quot;font-size: 15px;&quot;&gt;+deploy&lt;/font&gt;" style="text;html=1;align=center;verticalAlign=middle;whiteSpace=wrap;rounded=0;" parent="1" vertex="1">
          <mxGeometry x="1030" y="430" width="60" height="30" as="geometry" />
        </mxCell>
        <mxCell id="kIW7K7C1Y4I2FNfuoo-G-112" value="&lt;span style=&quot;color: rgb(0, 0, 0); font-family: Helvetica; font-size: 15px; font-style: normal; font-variant-ligatures: normal; font-variant-caps: normal; font-weight: 400; letter-spacing: normal; orphans: 2; text-align: center; text-indent: 0px; text-transform: none; widows: 2; word-spacing: 0px; -webkit-text-stroke-width: 0px; white-space: normal; background-color: rgb(251, 251, 251); text-decoration-thickness: initial; text-decoration-style: initial; text-decoration-color: initial; display: inline !important; float: none;&quot;&gt;+deploy&lt;/span&gt;" style="text;whiteSpace=wrap;html=1;" parent="1" vertex="1">
          <mxGeometry x="860" y="440" width="90" height="40" as="geometry" />
        </mxCell>
      </root>
    </mxGraphModel>
  </diagram>
</mxfile>
